<svg width="150" height="150" viewBox="0 0 150 150" fill="none" xmlns="http://www.w3.org/2000/svg">
<path opacity="0.5" fill-rule="evenodd" clip-rule="evenodd" d="M53.2399 124.542C37.6215 112.896 19.2847 99.2114 19.2847 75.4996C19.2847 49.3227 49.8666 30.7572 74.8883 55.9271C99.9099 30.7572 130.492 49.3227 130.492 75.4996C130.492 99.2114 112.155 112.896 96.5366 124.542C94.9179 125.753 93.3239 126.939 91.7794 128.113C86.009 132.518 80.4486 136.67 74.8883 136.67C69.3279 136.67 63.7675 132.518 57.9971 128.113C56.4526 126.939 54.8586 125.753 53.2399 124.542Z" fill="#00ABE4"/>
<path d="M74.888 70.2542C76.117 70.2542 77.2955 70.7424 78.1645 71.6114C79.0335 72.4804 79.5217 73.659 79.5217 74.8879V90.3333C79.5217 91.5622 79.0335 92.7408 78.1645 93.6098C77.2955 94.4788 76.117 94.9669 74.888 94.9669C73.6591 94.9669 72.4805 94.4788 71.6116 93.6098C70.7426 92.7408 70.2544 91.5622 70.2544 90.3333V74.8879C70.2544 73.659 70.7426 72.4804 71.6116 71.6114C72.4805 70.7424 73.6591 70.2542 74.888 70.2542ZM48.6308 43.997C48.6308 34.6988 51.3924 28.3106 55.6677 24.2268C59.9739 20.0998 66.4178 17.7397 74.888 17.7397C83.3521 17.7397 89.8022 20.0998 94.1083 24.2268C98.3836 28.3106 101.145 34.6988 101.145 43.997C104.312 44.0726 107.443 44.6801 110.413 45.7825V43.997C110.413 32.8207 107.039 23.7635 100.515 17.5235C94.028 11.3206 85.0326 8.47247 74.888 8.47247C64.7435 8.47247 55.7481 11.3206 49.261 17.5235C42.7368 23.7635 39.3635 32.8207 39.3635 43.997V45.7887C42.332 44.6821 45.4638 44.0766 48.6308 43.997Z" fill="#00ABE4"/>
</svg>
